<svg width="1600" height="900" viewBox="0 0 1600 900" fill="none" xmlns="http://www.w3.org/2000/svg">
  <defs>
    <linearGradient id="bg" x1="0" y1="0" x2="1600" y2="900" gradientUnits="userSpaceOnUse">
      <stop stop-color="#071126"/>
      <stop offset="0.48" stop-color="#15357A"/>
      <stop offset="1" stop-color="#091227"/>
    </linearGradient>
    <linearGradient id="bar" x1="0" y1="0" x2="0" y2="1">
      <stop stop-color="#C6F3FF"/>
      <stop offset="0.48" stop-color="#75BFFF"/>
      <stop offset="1" stop-color="#2A58C9"/>
    </linearGradient>
    <linearGradient id="panel" x1="0" y1="0" x2="1" y2="1">
      <stop stop-color="#0D214E" stop-opacity="0.92"/>
      <stop offset="1" stop-color="#071633" stop-opacity="0.92"/>
    </linearGradient>
    <radialGradient id="orbCyan" cx="0" cy="0" r="1" gradientUnits="userSpaceOnUse" gradientTransform="translate(270 180) rotate(90) scale(220 280)">
      <stop stop-color="#66F0FF" stop-opacity="0.38"/>
      <stop offset="1" stop-color="#66F0FF" stop-opacity="0"/>
    </radialGradient>
    <radialGradient id="orbPink" cx="0" cy="0" r="1" gradientUnits="userSpaceOnUse" gradientTransform="translate(1300 160) rotate(90) scale(180 220)">
      <stop stop-color="#FF8CDA" stop-opacity="0.3"/>
      <stop offset="1" stop-color="#FF8CDA" stop-opacity="0"/>
    </radialGradient>
    <radialGradient id="orbGreen" cx="0" cy="0" r="1" gradientUnits="userSpaceOnUse" gradientTransform="translate(1120 730) rotate(90) scale(160 250)">
      <stop stop-color="#9AFFC8" stop-opacity="0.24"/>
      <stop offset="1" stop-color="#9AFFC8" stop-opacity="0"/>
    </radialGradient>
    <filter id="glow">
      <feGaussianBlur stdDeviation="14" result="blur"/>
      <feMerge>
        <feMergeNode in="blur"/>
        <feMergeNode in="SourceGraphic"/>
      </feMerge>
    </filter>
    <pattern id="scanlines" patternUnits="userSpaceOnUse" width="6" height="6">
      <rect width="6" height="1" fill="white" fill-opacity="0.06"/>
    </pattern>
  </defs>

  <rect width="1600" height="900" fill="url(#bg)"/>
  <rect width="1600" height="900" fill="url(#orbCyan)"/>
  <rect width="1600" height="900" fill="url(#orbPink)"/>
  <rect width="1600" height="900" fill="url(#orbGreen)"/>
  <rect width="1600" height="900" fill="url(#scanlines)" opacity="0.34"/>

  <g opacity="0.85">
    <circle cx="150" cy="90" r="3" fill="#9AFFF5"/>
    <circle cx="248" cy="132" r="2" fill="#FFF59A"/>
    <circle cx="1370" cy="92" r="3" fill="#9AFFF5"/>
    <circle cx="1264" cy="186" r="2" fill="#FFD6F6"/>
    <circle cx="1102" cy="788" r="3" fill="#9AFFF5"/>
    <path d="M302 102l6 18 19 1-15 11 5 18-15-11-15 11 5-18-15-11 19-1 6-18Z" fill="#A5FFF0" fill-opacity="0.22"/>
    <path d="M1460 742l5 14 15 1-11 9 3 14-12-8-12 8 4-14-11-9 14-1 5-14Z" fill="#FFA4E6" fill-opacity="0.22"/>
  </g>

  <g transform="translate(92 64)">
    <rect x="0" y="0" width="1416" height="66" rx="2" fill="url(#bar)"/>
    <text x="26" y="43" fill="#07162B" font-family="Verdana, Arial, sans-serif" font-size="28" font-weight="700">ClawForge // Webcore Control Room</text>
    <text x="1268" y="43" fill="#07162B" font-family="Verdana, Arial, sans-serif" font-size="24" font-weight="700">_  □  X</text>
  </g>

  <g transform="translate(92 152)">
    <rect x="0" y="0" width="924" height="330" fill="url(#panel)" stroke="#6FDFFF" stroke-opacity="0.45"/>
    <rect x="0" y="0" width="924" height="48" fill="url(#bar)"/>
    <text x="18" y="31" fill="#06152A" font-family="Verdana, Arial, sans-serif" font-size="22" font-weight="700">clawforge_boot.exe</text>
    <text x="684" y="31" fill="#06152A" font-family="Verdana, Arial, sans-serif" font-size="22" font-weight="700">dialup://connected</text>
    <text x="32" y="106" fill="#71E9FF" font-family="Arial Black, Arial, sans-serif" font-size="72" letter-spacing="2">CLAWFORGE</text>
    <text x="34" y="154" fill="#A1F4FF" font-family="Verdana, Arial, sans-serif" font-size="22">small-factor multi-agent control with old-web energy</text>
    <text x="34" y="210" fill="#D7F5FF" font-family="Verdana, Arial, sans-serif" font-size="26">100 agents / machine</text>
    <text x="34" y="246" fill="#D7F5FF" font-family="Verdana, Arial, sans-serif" font-size="26">50 providers planned</text>
    <text x="34" y="282" fill="#D7F5FF" font-family="Verdana, Arial, sans-serif" font-size="26">token conservative // PicoClaw parity // OpenClaw-compatible</text>
    <rect x="34" y="296" width="220" height="18" fill="#86FFCD" fill-opacity="0.26"/>
    <rect x="270" y="296" width="176" height="18" fill="#73E7FF" fill-opacity="0.22"/>
    <rect x="462" y="296" width="232" height="18" fill="#FF92DF" fill-opacity="0.22"/>
  </g>

  <g transform="translate(1046 152)">
    <rect x="0" y="0" width="462" height="330" fill="url(#panel)" stroke="#6FDFFF" stroke-opacity="0.45"/>
    <rect x="0" y="0" width="462" height="48" fill="url(#bar)"/>
    <text x="18" y="31" fill="#06152A" font-family="Verdana, Arial, sans-serif" font-size="22" font-weight="700">popup_gallery.html</text>
    <rect x="36" y="80" width="174" height="122" fill="#10285A" stroke="#95E9FF" stroke-opacity="0.45"/>
    <rect x="218" y="124" width="186" height="128" fill="#0A1E49" stroke="#FF92DF" stroke-opacity="0.55"/>
    <rect x="96" y="214" width="210" height="76" fill="#0F224F" stroke="#A1FFCF" stroke-opacity="0.55"/>
    <rect x="58" y="98" width="130" height="18" fill="#BEEFFF"/>
    <rect x="240" y="142" width="140" height="18" fill="#FFD0F0"/>
    <rect x="116" y="232" width="172" height="18" fill="#C7FFD8"/>
    <circle cx="344" cy="104" r="38" fill="#6FE6FF" fill-opacity="0.36" filter="url(#glow)"/>
    <path d="M96 184l34-62 36 20-30 60-40-18Z" fill="#86FFD0" fill-opacity="0.34"/>
    <path d="M272 280l66-10 10 52-64 12-12-54Z" fill="#FF96E0" fill-opacity="0.28"/>
    <text x="56" y="318" fill="#D7F5FF" font-family="Verdana, Arial, sans-serif" font-size="18">browser windows // popups // low poly // archived web dreamscape</text>
  </g>

  <g transform="translate(122 540)">
    <rect x="0" y="0" width="430" height="204" fill="url(#panel)" stroke="#6FDFFF" stroke-opacity="0.42"/>
    <rect x="0" y="0" width="430" height="40" fill="url(#bar)"/>
    <text x="16" y="27" fill="#06152A" font-family="Verdana, Arial, sans-serif" font-size="19" font-weight="700">priority_queue.ini</text>
    <text x="24" y="82" fill="#9BFFF1" font-family="Verdana, Arial, sans-serif" font-size="24">1. Ollama</text>
    <text x="24" y="114" fill="#9BFFF1" font-family="Verdana, Arial, sans-serif" font-size="24">2. Ollama Cloud</text>
    <text x="24" y="146" fill="#9BFFF1" font-family="Verdana, Arial, sans-serif" font-size="24">3. Z.AI</text>
    <text x="24" y="178" fill="#9BFFF1" font-family="Verdana, Arial, sans-serif" font-size="24">4. Anthropic</text>
  </g>

  <g transform="translate(584 540)">
    <rect x="0" y="0" width="396" height="204" fill="url(#panel)" stroke="#6FDFFF" stroke-opacity="0.42"/>
    <rect x="0" y="0" width="396" height="40" fill="url(#bar)"/>
    <text x="16" y="27" fill="#06152A" font-family="Verdana, Arial, sans-serif" font-size="19" font-weight="700">speed_budget.sys</text>
    <text x="24" y="82" fill="#D7F5FF" font-family="Verdana, Arial, sans-serif" font-size="22">match PicoClaw feature surface</text>
    <text x="24" y="118" fill="#D7F5FF" font-family="Verdana, Arial, sans-serif" font-size="22">protect small-factor runtime</text>
    <text x="24" y="154" fill="#D7F5FF" font-family="Verdana, Arial, sans-serif" font-size="22">be stingy with tokens</text>
  </g>

  <g transform="translate(1010 540)">
    <rect x="0" y="0" width="466" height="204" fill="url(#panel)" stroke="#6FDFFF" stroke-opacity="0.42"/>
    <rect x="0" y="0" width="466" height="40" fill="url(#bar)"/>
    <text x="16" y="27" fill="#06152A" font-family="Verdana, Arial, sans-serif" font-size="19" font-weight="700">usecases.db</text>
    <text x="24" y="84" fill="#D7F5FF" font-family="Verdana, Arial, sans-serif" font-size="21">build from real OpenClaw workflows</text>
    <text x="24" y="120" fill="#D7F5FF" font-family="Verdana, Arial, sans-serif" font-size="21">not benchmark vanity</text>
    <text x="24" y="156" fill="#FFABE8" font-family="Verdana, Arial, sans-serif" font-size="20">awesome-openclaw-usecases → recurring roadmap input</text>
  </g>
</svg>
